<svg width="512" height="512" viewBox="0 0 512 512" fill="none" xmlns="http://www.w3.org/2000/svg">
  <!-- Body Shadow/Bottom Shape -->
  <path d="M166 380C166 429.706 206.294 470 256 470C305.706 470 346 429.706 346 380H166Z" fill="#22D3EE" />
  <path d="M166 380C166 429.706 206.294 470 256 470C305.706 470 346 429.706 346 380H166Z" stroke="#0F172A" stroke-width="12" stroke-linecap="round" stroke-linejoin="round"/>

  <!-- Body -->
  <rect x="160" y="240" width="192" height="160" rx="32" fill="white" stroke="#0F172A" stroke-width="12" />
  
  <!-- Belly Panel -->
  <rect x="200" y="290" width="112" height="80" rx="16" fill="#86EFAC" opacity="0.4" stroke="#059669" stroke-width="8" />

  <!-- Arms -->
  <path d="M160 280C120 280 80 320 60 360" stroke="#0F172A" stroke-width="12" stroke-linecap="round" fill="none" />
  <path d="M352 280C392 280 432 320 452 360" stroke="#0F172A" stroke-width="12" stroke-linecap="round" fill="none" />
  
  <!-- Hands (Simple Circles) -->
  <circle cx="60" cy="360" r="12" fill="#22D3EE" stroke="#0F172A" stroke-width="8" />
  <circle cx="452" cy="360" r="12" fill="#22D3EE" stroke="#0F172A" stroke-width="8" />

  <!-- Head Connector -->
  <rect x="236" y="210" width="40" height="30" fill="#94A3B8" stroke="#0F172A" stroke-width="8" />

  <!-- Head (Rounded) -->
  <rect x="136" y="70" width="240" height="170" rx="60" fill="white" stroke="#0F172A" stroke-width="12" />
  
  <!-- Face Visor -->
  <rect x="166" y="100" width="180" height="110" rx="40" fill="#1E293B" />
  
  <!-- Eyes (Glowing Light Blue) -->
  <rect x="206" y="125" width="24" height="36" rx="6" fill="#22D3EE" />
  <rect x="282" y="125" width="24" height="36" rx="6" fill="#22D3EE" />
  
  <!-- Smile -->
  <path d="M236 175C236 175 246 185 256 185C266 185 276 175 276 175" stroke="#22D3EE" stroke-width="6" stroke-linecap="round" fill="none" />
  
  <!-- Ear Caps -->
  <rect x="116" y="120" width="20" height="70" rx="10" fill="#22D3EE" stroke="#0F172A" stroke-width="8" />
  <rect x="376" y="120" width="20" height="70" rx="10" fill="#22D3EE" stroke="#0F172A" stroke-width="8" />
</svg>
